<svg display="none"
xmlns="http://www.w3.org/2000/svg">
    <symbol id="chek" viewBox="0 0 21 21">
        <g>
            <path d="M10.1215 0.549316C4.60746 0.549316 0.12146 5.03532 0.12146 10.5493C0.12146 16.0633 4.60746 20.5493 10.1215 20.5493C15.6355 20.5493 20.1215 16.0633 20.1215 10.5493C20.1215 5.03532 15.6355 0.549316 10.1215 0.549316ZM8.12246 14.9623L5.11691 11.9632C4.72616 11.5733 4.72537 10.9405 5.11515 10.5496C5.50517 10.1585 6.13847 10.1578 6.52939 10.548L8.12046 12.1363L12.7075 7.54932C13.0979 7.15885 13.731 7.15885 14.1215 7.54932C14.5119 7.93978 14.5119 8.57285 14.1215 8.96332L8.12246 14.9623Z" fill="#2FAB73"/>        
        </g>
    </symbol>
    <symbol id="user" viewBox="0 0 17 19">
        <g>
            <path fill-rule="evenodd" clip-rule="evenodd" d="M8.50001 7.34929C9.45479 7.34929 10.3705 6.97001 11.0456 6.29488C11.7207 5.61975 12.1 4.70407 12.1 3.74929C12.1 2.79451 11.7207 1.87884 11.0456 1.20371C10.3705 0.528577 9.45479 0.149292 8.50001 0.149292C7.54523 0.149292 6.62955 0.528577 5.95442 1.20371C5.27929 1.87884 4.90001 2.79451 4.90001 3.74929C4.90001 4.70407 5.27929 5.61975 5.95442 6.29488C6.62955 6.97001 7.54523 7.34929 8.50001 7.34929ZM3.39866 18.1493C1.57686 18.1493 0.0422473 16.6179 0.739418 14.9347C1.16156 13.9156 1.7803 12.9896 2.56031 12.2096C3.34032 11.4296 4.26633 10.8108 5.28547 10.3887C6.3046 9.96656 7.3969 9.74929 8.50001 9.74929C9.60311 9.74929 10.6954 9.96656 11.7145 10.3887C12.7337 10.8108 13.6597 11.4296 14.4397 12.2096C15.2197 12.9896 15.8385 13.9156 16.2606 14.9347C16.9578 16.6179 15.4232 18.1493 13.6014 18.1493H3.39866Z" fill="#F53838"/>
        </g>
    </symbol>
    <symbol id="server" viewBox="0 0 21 19">
        <g>
            <path d="M18.5 0.549316H2.5C1.96957 0.549316 1.46086 0.76003 1.08579 1.1351C0.710714 1.51018 0.5 2.01888 0.5 2.54932V6.54932C0.5 7.07975 0.710714 7.58846 1.08579 7.96353C1.46086 8.3386 1.96957 8.54932 2.5 8.54932H18.5C19.0304 8.54932 19.5391 8.3386 19.9142 7.96353C20.2893 7.58846 20.5 7.07975 20.5 6.54932V2.54932C20.5 2.01888 20.2893 1.51018 19.9142 1.1351C19.5391 0.76003 19.0304 0.549316 18.5 0.549316ZM13.5 4.54932C13.5 5.1016 13.0523 5.54932 12.5 5.54932C11.9477 5.54932 11.5 5.1016 11.5 4.54932C11.5 3.99703 11.9477 3.54932 12.5 3.54932C13.0523 3.54932 13.5 3.99703 13.5 4.54932ZM17.5 4.54932C17.5 5.1016 17.0523 5.54932 16.5 5.54932C15.9477 5.54932 15.5 5.1016 15.5 4.54932C15.5 3.99703 15.9477 3.54932 16.5 3.54932C17.0523 3.54932 17.5 3.99703 17.5 4.54932ZM18.5 10.5493H2.5C1.96957 10.5493 1.46086 10.76 1.08579 11.1351C0.710714 11.5102 0.5 12.0189 0.5 12.5493V16.5493C0.5 17.0798 0.710714 17.5885 1.08579 17.9635C1.46086 18.3386 1.96957 18.5493 2.5 18.5493H18.5C19.0304 18.5493 19.5391 18.3386 19.9142 17.9635C20.2893 17.5885 20.5 17.0798 20.5 16.5493V12.5493C20.5 12.0189 20.2893 11.5102 19.9142 11.1351C19.5391 10.76 19.0304 10.5493 18.5 10.5493ZM13.5 14.5493C13.5 15.1016 13.0523 15.5493 12.5 15.5493C11.9477 15.5493 11.5 15.1016 11.5 14.5493C11.5 13.997 11.9477 13.5493 12.5 13.5493C13.0523 13.5493 13.5 13.997 13.5 14.5493ZM17.5 14.5493C17.5 15.1016 17.0523 15.5493 16.5 15.5493C15.9477 15.5493 15.5 15.1016 15.5 14.5493C15.5 13.997 15.9477 13.5493 16.5 13.5493C17.0523 13.5493 17.5 13.997 17.5 14.5493Z" fill="#F53838"/>
        </g>
    </symbol>
    <symbol id="right-arrow" viewBox="0 0 59.414 59.414">
        <g>
            <polygon points="15.561,0 14.146,1.414 42.439,29.707 14.146,58 15.561,59.414 45.268,29.707 "/>
        </g>
    </symbol>
    <symbol id="left-arrow" viewBox="0 0 197.402 197.402">
        <g>
            <polygon points="146.883,197.402 45.255,98.698 146.883,0 152.148,5.418 56.109,98.698 152.148,191.98"/>
        </g>
    </symbol>
    <symbol id="mark" viewBox="0 0 14 10">
        <g>
            <path d="M5.39616 9.27956C5.26489 9.27983 5.13487 9.25417 5.01354 9.20406C4.89222 9.15395 4.78198 9.08038 4.68916 8.98756L0.447159 4.74456C0.351586 4.65238 0.275328 4.54209 0.222834 4.42013C0.170341 4.29816 0.142664 4.16696 0.141417 4.03418C0.14017 3.9014 0.165379 3.76971 0.215573 3.64678C0.265767 3.52385 0.339941 3.41214 0.433766 3.31819C0.527592 3.22423 0.63919 3.1499 0.762049 3.09953C0.884908 3.04916 1.01657 3.02377 1.14935 3.02482C1.28213 3.02588 1.41336 3.05337 1.53541 3.1057C1.65745 3.15802 1.76784 3.23412 1.86016 3.32956L5.39516 6.86456L11.7602 0.501562C11.9477 0.313921 12.202 0.208453 12.4673 0.208359C12.7326 0.208265 12.987 0.313553 13.1747 0.501061C13.3623 0.68857 13.4678 0.942938 13.4679 1.20821C13.468 1.47348 13.3627 1.72792 13.1752 1.91556L6.10316 8.98756C6.01034 9.08038 5.9001 9.15395 5.77878 9.20406C5.65745 9.25417 5.52742 9.27983 5.39616 9.27956Z" fill="#2FAB73"/>        
        </g>
    </symbol>
    <symbol id="map-mark" viewBox="0 0 14 21">
        <g>
            <path d="M14 7.54932C14 6.63006 13.8189 5.71981 13.4672 4.87053C13.1154 4.02125 12.5998 3.24958 11.9497 2.59957C11.2997 1.94956 10.5281 1.43394 9.67878 1.08216C8.8295 0.730377 7.91925 0.549316 7 0.549316C6.08075 0.549316 5.17049 0.730377 4.32122 1.08216C3.47194 1.43394 2.70026 1.94956 2.05025 2.59957C1.40024 3.24958 0.884626 4.02125 0.532843 4.87053C0.18106 5.71981 -1.36979e-08 6.63006 0 7.54932C0 8.93632 0.41 10.2263 1.105 11.3143H1.097C3.457 15.0093 7 20.5493 7 20.5493L12.903 11.3143H12.896C13.6164 10.1907 13.9995 8.88406 14 7.54932ZM7 10.5493C6.20435 10.5493 5.44129 10.2332 4.87868 9.67064C4.31607 9.10803 4 8.34497 4 7.54932C4 6.75367 4.31607 5.99061 4.87868 5.428C5.44129 4.86539 6.20435 4.54932 7 4.54932C7.79565 4.54932 8.55871 4.86539 9.12132 5.428C9.68393 5.99061 10 6.75367 10 7.54932C10 8.34497 9.68393 9.10803 9.12132 9.67064C8.55871 10.2332 7.79565 10.5493 7 10.5493Z" fill="#F53838"/>
        </g>
    </symbol>
    <symbol id="facebook" viewBox="0 0 310 310">
        <g>
            <path id="XMLID_835_" d="M81.703,165.106h33.981V305c0,2.762,2.238,5,5,5h57.616c2.762,0,5-2.238,5-5V165.765h39.064
            c2.54,0,4.677-1.906,4.967-4.429l5.933-51.502c0.163-1.417-0.286-2.836-1.234-3.899c-0.949-1.064-2.307-1.673-3.732-1.673h-44.996
            V71.978c0-9.732,5.24-14.667,15.576-14.667c1.473,0,29.42,0,29.42,0c2.762,0,5-2.239,5-5V5.037c0-2.762-2.238-5-5-5h-40.545
            C187.467,0.023,186.832,0,185.896,0c-7.035,0-31.488,1.381-50.804,19.151c-21.402,19.692-18.427,43.27-17.716,47.358v37.752H81.703
            c-2.762,0-5,2.238-5,5v50.844C76.703,162.867,78.941,165.106,81.703,165.106z"/>
        </g>
    </symbol>
    <symbol id="twitter" viewBox="0 0 310 310">
        <g>
            <path id="XMLID_827_" d="M302.973,57.388c-4.87,2.16-9.877,3.983-14.993,5.463c6.057-6.85,10.675-14.91,13.494-23.73
            c0.632-1.977-0.023-4.141-1.648-5.434c-1.623-1.294-3.878-1.449-5.665-0.39c-10.865,6.444-22.587,11.075-34.878,13.783
            c-12.381-12.098-29.197-18.983-46.581-18.983c-36.695,0-66.549,29.853-66.549,66.547c0,2.89,0.183,5.764,0.545,8.598
            C101.163,99.244,58.83,76.863,29.76,41.204c-1.036-1.271-2.632-1.956-4.266-1.825c-1.635,0.128-3.104,1.05-3.93,2.467
            c-5.896,10.117-9.013,21.688-9.013,33.461c0,16.035,5.725,31.249,15.838,43.137c-3.075-1.065-6.059-2.396-8.907-3.977
            c-1.529-0.851-3.395-0.838-4.914,0.033c-1.52,0.871-2.473,2.473-2.513,4.224c-0.007,0.295-0.007,0.59-0.007,0.889
            c0,23.935,12.882,45.484,32.577,57.229c-1.692-0.169-3.383-0.414-5.063-0.735c-1.732-0.331-3.513,0.276-4.681,1.597
            c-1.17,1.32-1.557,3.16-1.018,4.84c7.29,22.76,26.059,39.501,48.749,44.605c-18.819,11.787-40.34,17.961-62.932,17.961
            c-4.714,0-9.455-0.277-14.095-0.826c-2.305-0.274-4.509,1.087-5.294,3.279c-0.785,2.193,0.047,4.638,2.008,5.895
            c29.023,18.609,62.582,28.445,97.047,28.445c67.754,0,110.139-31.95,133.764-58.753c29.46-33.421,46.356-77.658,46.356-121.367
            c0-1.826-0.028-3.67-0.084-5.508c11.623-8.757,21.63-19.355,29.773-31.536c1.237-1.85,1.103-4.295-0.33-5.998
            C307.394,57.037,305.009,56.486,302.973,57.388z"/>
        </g>
    </symbol>
    <symbol id="instagram" viewBox="0 0 300 300">
        <g>
            <path id="XMLID_505_" d="M38.52,0.012h222.978C282.682,0.012,300,17.336,300,38.52v222.978c0,21.178-17.318,38.49-38.502,38.49
            H38.52c-21.184,0-38.52-17.313-38.52-38.49V38.52C0,17.336,17.336,0.012,38.52,0.012z M218.546,33.329
            c-7.438,0-13.505,6.091-13.505,13.525v32.314c0,7.437,6.067,13.514,13.505,13.514h33.903c7.426,0,13.506-6.077,13.506-13.514
            V46.854c0-7.434-6.08-13.525-13.506-13.525H218.546z M266.084,126.868h-26.396c2.503,8.175,3.86,16.796,3.86,25.759
            c0,49.882-41.766,90.34-93.266,90.34c-51.487,0-93.254-40.458-93.254-90.34c0-8.963,1.37-17.584,3.861-25.759H33.35v126.732
            c0,6.563,5.359,11.902,11.916,11.902h208.907c6.563,0,11.911-5.339,11.911-11.902V126.868z M150.283,90.978
            c-33.26,0-60.24,26.128-60.24,58.388c0,32.227,26.98,58.375,60.24,58.375c33.278,0,60.259-26.148,60.259-58.375
            C210.542,117.105,183.561,90.978,150.283,90.978z"/>
        </g>
    </symbol>
    <symbol id="star" viewBox="0 0 47.94 47.94">
        <g>
            <path style="fill:#FEA250;" d="M26.285,2.486l5.407,10.956c0.376,0.762,1.103,1.29,1.944,1.412l12.091,1.757
            c2.118,0.308,2.963,2.91,1.431,4.403l-8.749,8.528c-0.608,0.593-0.886,1.448-0.742,2.285l2.065,12.042
            c0.362,2.109-1.852,3.717-3.746,2.722l-10.814-5.685c-0.752-0.395-1.651-0.395-2.403,0l-10.814,5.685
            c-1.894,0.996-4.108-0.613-3.746-2.722l2.065-12.042c0.144-0.837-0.134-1.692-0.742-2.285l-8.749-8.528
            c-1.532-1.494-0.687-4.096,1.431-4.403l12.091-1.757c0.841-0.122,1.568-0.65,1.944-1.412l5.407-10.956
            C22.602,0.567,25.338,0.567,26.285,2.486z"/>
        </g>
    </symbol>
     <symbol id="up-arrow" viewBox="0 0 64 64">
        <g>
            <path d="M33.454,17.627c-0.756-0.801-2.152-0.801-2.908,0l-17,18c-0.758,0.803-0.722,2.069,0.081,2.827
                c0.803,0.758,2.069,0.722,2.827-0.081L32,21.913l15.546,16.46C47.939,38.79,48.469,39,49,39c0.493,0,0.986-0.181,1.373-0.546
                c0.803-0.758,0.839-2.024,0.081-2.827L33.454,17.627z"/>
            <path d="M32,0C23.453,0,15.417,3.329,9.374,9.373C3.329,15.417,0,23.453,0,32s3.33,16.583,9.374,22.626
                C15.417,60.671,23.453,64,32,64s16.583-3.329,22.626-9.373C60.671,48.583,64,40.547,64,32s-3.33-16.583-9.374-22.626
                C48.583,3.329,40.547,0,32,0z M51.797,51.798C46.509,57.087,39.479,60,32,60s-14.509-2.913-19.798-8.202C6.913,46.51,4,39.479,4,32
                s2.913-14.51,8.203-19.798C17.491,6.913,24.521,4,32,4s14.509,2.913,19.798,8.202C57.087,17.49,60,24.521,60,32
                S57.087,46.51,51.797,51.798z"/>
        </g>
    </symbol>
</svg>
