<svg display="none"
xmlns="http://www.w3.org/2000/svg">
    <symbol id="mark" viewBox="0 0 51 50">
        <g>
            <path style=" stroke:none;fill-rule:nonzero;fill:#ccc;fill-opacity:1;" d="M 16.019531 0 C 12.535156 2.628906 5.628906 8.636719 2.140625 18.78125 C 1.121094 21.726562 -1.308594 29.089844 0.90625 37.667969 C 1.710938 40.78125 3.378906 47.21875 8.519531 49.277344 C 9.132812 49.523438 12.4375 50.84375 15.796875 49.164062 C 16.394531 48.867188 18.566406 47.703125 19.601562 45.292969 C 20.996094 42.03125 19.785156 37.71875 16.460938 34.710938 C 15.199219 32.996094 13.085938 29.636719 12.4375 24.921875 C 11.660156 19.335938 13.375 15.050781 14.230469 12.976562 C 15.613281 9.652344 17.671875 6.667969 20.269531 4.214844 Z M 16.019531 0 "/>
            <path style=" stroke:none;fill-rule:nonzero;fill:#ccc;fill-opacity:1;" d="M 46.746094 0 C 43.257812 2.628906 36.355469 8.636719 32.867188 18.78125 C 31.847656 21.726562 29.414062 29.089844 31.628906 37.667969 C 32.433594 40.78125 34.105469 47.21875 39.246094 49.277344 C 39.859375 49.523438 43.164062 50.84375 46.523438 49.164062 C 47.117188 48.867188 49.289062 47.703125 50.328125 45.292969 C 51.722656 42.03125 50.511719 37.71875 47.1875 34.710938 C 45.925781 32.996094 43.8125 29.636719 43.164062 24.921875 C 42.386719 19.335938 44.097656 15.050781 44.957031 12.976562 C 46.335938 9.652344 48.394531 6.667969 50.996094 4.214844 Z M 46.746094 0 "/>
        </g>
    </symbol>
    <symbol id="facebook" viewBox="0 0 30 30">
        <g>
            <path d="M27.56,0.684H2.383C1.065,0.684,0,1.748,0,3.064v23.813c0,1.312,1.065,2.379,2.383,2.379H27.56
            c1.312,0,2.38-1.066,2.38-2.379V3.064C29.939,1.748,28.871,0.684,27.56,0.684z M20.125,9.167c-0.619-0.362-1.11-0.648-1.727-0.648
            c-0.604,0-1.12,0.151-1.384,0.405c-0.264,0.252-0.395,0.74-0.395,1.461v1.067h3.229l-0.699,2.968h-2.53v9.862h-4.056V14.42H10.67
            v-2.968h1.895v-1.133c0-1.193,0.143-1.907,0.425-2.496c0.281-0.587,0.826-1.241,1.584-1.611c0.757-0.369,1.877-0.555,3.036-0.555
            c1.188,0,2.116,0.396,3.254,0.715L20.125,9.167z"/>
        </g>
    </symbol>
    <symbol id="twitter" viewBox="0 0 310 310">
        <g>
            <path id="XMLID_827_" d="M302.973,57.388c-4.87,2.16-9.877,3.983-14.993,5.463c6.057-6.85,10.675-14.91,13.494-23.73
            c0.632-1.977-0.023-4.141-1.648-5.434c-1.623-1.294-3.878-1.449-5.665-0.39c-10.865,6.444-22.587,11.075-34.878,13.783
            c-12.381-12.098-29.197-18.983-46.581-18.983c-36.695,0-66.549,29.853-66.549,66.547c0,2.89,0.183,5.764,0.545,8.598
            C101.163,99.244,58.83,76.863,29.76,41.204c-1.036-1.271-2.632-1.956-4.266-1.825c-1.635,0.128-3.104,1.05-3.93,2.467
            c-5.896,10.117-9.013,21.688-9.013,33.461c0,16.035,5.725,31.249,15.838,43.137c-3.075-1.065-6.059-2.396-8.907-3.977
            c-1.529-0.851-3.395-0.838-4.914,0.033c-1.52,0.871-2.473,2.473-2.513,4.224c-0.007,0.295-0.007,0.59-0.007,0.889
            c0,23.935,12.882,45.484,32.577,57.229c-1.692-0.169-3.383-0.414-5.063-0.735c-1.732-0.331-3.513,0.276-4.681,1.597
            c-1.17,1.32-1.557,3.16-1.018,4.84c7.29,22.76,26.059,39.501,48.749,44.605c-18.819,11.787-40.34,17.961-62.932,17.961
            c-4.714,0-9.455-0.277-14.095-0.826c-2.305-0.274-4.509,1.087-5.294,3.279c-0.785,2.193,0.047,4.638,2.008,5.895
            c29.023,18.609,62.582,28.445,97.047,28.445c67.754,0,110.139-31.95,133.764-58.753c29.46-33.421,46.356-77.658,46.356-121.367
            c0-1.826-0.028-3.67-0.084-5.508c11.623-8.757,21.63-19.355,29.773-31.536c1.237-1.85,1.103-4.295-0.33-5.998
            C307.394,57.037,305.009,56.486,302.973,57.388z"/>
        </g>
    </symbol>
    <symbol id="instagram" viewBox="0 0 300 300">
        <g>
            <path id="XMLID_505_" d="M38.52,0.012h222.978C282.682,0.012,300,17.336,300,38.52v222.978c0,21.178-17.318,38.49-38.502,38.49
            H38.52c-21.184,0-38.52-17.313-38.52-38.49V38.52C0,17.336,17.336,0.012,38.52,0.012z M218.546,33.329
            c-7.438,0-13.505,6.091-13.505,13.525v32.314c0,7.437,6.067,13.514,13.505,13.514h33.903c7.426,0,13.506-6.077,13.506-13.514
            V46.854c0-7.434-6.08-13.525-13.506-13.525H218.546z M266.084,126.868h-26.396c2.503,8.175,3.86,16.796,3.86,25.759
            c0,49.882-41.766,90.34-93.266,90.34c-51.487,0-93.254-40.458-93.254-90.34c0-8.963,1.37-17.584,3.861-25.759H33.35v126.732
            c0,6.563,5.359,11.902,11.916,11.902h208.907c6.563,0,11.911-5.339,11.911-11.902V126.868z M150.283,90.978
            c-33.26,0-60.24,26.128-60.24,58.388c0,32.227,26.98,58.375,60.24,58.375c33.278,0,60.259-26.148,60.259-58.375
            C210.542,117.105,183.561,90.978,150.283,90.978z"/>
        </g>
    </symbol>
    <symbol id="linkedin" viewBox="0 0 310 310">
        <g>
            <path id="XMLID_802_" d="M72.16,99.73H9.927c-2.762,0-5,2.239-5,5v199.928c0,2.762,2.238,5,5,5H72.16c2.762,0,5-2.238,5-5V104.73
            C77.16,101.969,74.922,99.73,72.16,99.73z"/>
            <path id="XMLID_803_" d="M41.066,0.341C18.422,0.341,0,18.743,0,41.362C0,63.991,18.422,82.4,41.066,82.4
            c22.626,0,41.033-18.41,41.033-41.038C82.1,18.743,63.692,0.341,41.066,0.341z"/>
            <path id="XMLID_804_" d="M230.454,94.761c-24.995,0-43.472,10.745-54.679,22.954V104.73c0-2.761-2.238-5-5-5h-59.599
            c-2.762,0-5,2.239-5,5v199.928c0,2.762,2.238,5,5,5h62.097c2.762,0,5-2.238,5-5v-98.918c0-33.333,9.054-46.319,32.29-46.319
            c25.306,0,27.317,20.818,27.317,48.034v97.204c0,2.762,2.238,5,5,5H305c2.762,0,5-2.238,5-5V194.995
            C310,145.43,300.549,94.761,230.454,94.761z"/>
        </g>
    </symbol>
    <symbol id="youtube" viewBox="0 0 490 490">
        <g>
            <path d="M380,70H110C49.346,70,0,119.346,0,180v130c0,60.654,49.346,110,110,110h270c60.654,0,110-49.346,110-110V180
				C490,119.346,440.654,70,380,70z M470,310c0,49.626-40.374,90-90,90H110c-49.626,0-90-40.374-90-90V180c0-49.626,40.374-90,90-90
				h270c49.626,0,90,40.374,90,90V310z"/>
			<path d="M323.846,235.769l-120-50c-3.085-1.286-6.611-0.945-9.393,0.911c-2.782,1.854-4.453,4.977-4.453,8.32v100
				c0,3.344,1.671,6.466,4.453,8.32c1.667,1.112,3.601,1.68,5.548,1.68c1.301,0,2.608-0.254,3.845-0.769l120-50
				c3.727-1.553,6.154-5.194,6.154-9.231C330,240.963,327.572,237.322,323.846,235.769z M210,280v-70l84,35L210,280z"/>
        </g>
    </symbol>
</svg>
